<svg width="177" height="45" viewBox="0 0 177 45" fill="none" xmlns="http://www.w3.org/2000/svg">
<path d="M23.0915 0C23.0915 0 26.802 9.69206 10.8998 16.2021C2.25892 19.7386 -4.37778 28.8028 3.54643 42.8047C4.20269 36.5461 7.01666 22.7466 19.1166 19.5977C19.1166 19.5977 7.85471 24.0941 6.85987 44.4471C12.6467 45.3146 26.2185 45.8975 30.2479 33.3222C35.5688 16.7074 23.0915 0 23.0915 0Z" fill="#8DCE97"/>
<path d="M6.86512 44.3624C19.1501 39.1275 28.0889 26.8641 29.3226 12.2243C26.8111 4.99102 23.0915 0 23.0915 0C23.0915 0 26.802 9.69205 10.8998 16.2021C2.25892 19.7386 -4.37778 28.8028 3.54643 42.8047C4.20269 36.5461 7.01666 22.7466 19.1166 19.5977C19.1159 19.5977 7.88753 24.0829 6.86512 44.3624Z" fill="#8DCE97"/>
<path d="M2.32059 16.5251C2.95487 16.5251 3.46906 15.9761 3.46906 15.2988C3.46906 14.6216 2.95487 14.0726 2.32059 14.0726C1.68631 14.0726 1.17212 14.6216 1.17212 15.2988C1.17212 15.9761 1.68631 16.5251 2.32059 16.5251Z" fill="#8DCE97"/>
<path d="M5.92991 14.95C6.38295 14.95 6.75021 14.5575 6.75021 14.0735C6.75021 13.5894 6.38295 13.1971 5.92991 13.1971C5.47688 13.1971 5.10962 13.5894 5.10962 14.0735C5.10962 14.5575 5.47688 14.95 5.92991 14.95Z" fill="#8DCE97"/>
<path d="M5.19161 7.94156C6.32422 7.94156 7.24237 6.96122 7.24237 5.75192C7.24237 4.54262 6.32422 3.56229 5.19161 3.56229C4.05902 3.56229 3.14087 4.54262 3.14087 5.75192C3.14087 6.96122 4.05902 7.94156 5.19161 7.94156Z" fill="#8DCE97"/>
<path d="M11.508 11.4462C11.8705 11.4462 12.1643 11.1323 12.1643 10.7451C12.1643 10.3579 11.8705 10.0439 11.508 10.0439C11.1456 10.0439 10.8518 10.3579 10.8518 10.7451C10.8518 11.1323 11.1456 11.4462 11.508 11.4462Z" fill="#8DCE97"/>
<path d="M17.0046 8.81751C18.0466 8.81751 18.8913 7.91559 18.8913 6.80303C18.8913 5.69045 18.0466 4.78853 17.0046 4.78853C15.9626 4.78853 15.1179 5.69045 15.1179 6.80303C15.1179 7.91559 15.9626 8.81751 17.0046 8.81751Z" fill="#8DCE97"/>
<g opacity="0.8">
<path opacity="0.8" d="M50.7156 40.4623C48.8751 40.4623 47.2116 40.0357 45.7251 39.1822C44.2562 38.3289 43.0971 37.1508 42.2476 35.648C41.4159 34.1267 41 32.4293 41 30.5555C41 28.6817 41.4159 26.9934 42.2476 25.4907C43.0971 23.9694 44.2651 22.7821 45.7516 21.9287C47.2382 21.0753 48.9017 20.6486 50.7422 20.6486C52.1225 20.6486 53.3967 20.8898 54.5647 21.3722C55.7327 21.8545 56.7237 22.5595 57.5378 23.4871L56.2902 24.795C54.839 23.2552 53.0074 22.4853 50.7953 22.4853C49.3264 22.4853 47.9903 22.8377 46.7869 23.5428C45.5835 24.2477 44.6367 25.2125 43.9465 26.4368C43.2741 27.6613 42.9378 29.0342 42.9378 30.5555C42.9378 32.0768 43.2741 33.4496 43.9465 34.6741C44.6367 35.8985 45.5835 36.8632 46.7869 37.5682C47.9903 38.2732 49.3264 38.6257 50.7953 38.6257C53.0251 38.6257 54.8567 37.8465 56.2902 36.2881L57.5378 37.596C56.7237 38.5236 55.7239 39.238 54.5382 39.7388C53.3702 40.2212 52.096 40.4623 50.7156 40.4623Z" fill="#213E26"/>
<path opacity="0.8" d="M66.0042 25.5464C67.827 25.5464 69.2251 26.0288 70.1984 26.9935C71.1717 27.9397 71.6584 29.3496 71.6584 31.2234V40.2954H69.8533V38.0135C69.4286 38.7741 68.8003 39.3678 67.9686 39.7945C67.1545 40.2212 66.1812 40.4346 65.0486 40.4346C63.4912 40.4346 62.2525 40.045 61.3322 39.2657C60.412 38.4866 59.9519 37.4569 59.9519 36.1768C59.9519 34.9338 60.3766 33.932 61.226 33.1713C62.0932 32.4107 63.4647 32.0304 65.3406 32.0304H69.7737V31.1399C69.7737 29.8784 69.4374 28.9229 68.7649 28.2736C68.0925 27.6057 67.1103 27.2717 65.8184 27.2717C64.9336 27.2717 64.0841 27.4294 63.27 27.7448C62.456 28.0417 61.7569 28.4591 61.1729 28.9972L60.3235 27.5222C61.0314 26.8914 61.8808 26.4091 62.8719 26.0751C63.8629 25.7227 64.907 25.5464 66.0042 25.5464ZM65.3406 38.8762C66.4024 38.8762 67.3138 38.6257 68.0748 38.1248C68.8357 37.6053 69.402 36.8632 69.7737 35.8985V33.5053H65.3937C63.0046 33.5053 61.81 34.3772 61.81 36.1212C61.81 36.9746 62.1197 37.6517 62.7391 38.1526C63.3585 38.635 64.2257 38.8762 65.3406 38.8762Z" fill="#213E26"/>
<path opacity="0.8" d="M80.5203 40.4346C79.3877 40.4346 78.2993 40.2676 77.2552 39.9336C76.2288 39.5811 75.4236 39.1452 74.8396 38.6257L75.689 37.0673C76.273 37.5497 77.0075 37.9486 77.8923 38.264C78.7772 38.5608 79.6974 38.7092 80.653 38.7092C81.9272 38.7092 82.8651 38.5051 83.4668 38.097C84.0862 37.6702 84.3959 37.0766 84.3959 36.3159C84.3959 35.778 84.2278 35.3605 83.8916 35.0637C83.5553 34.7483 83.1306 34.5164 82.6174 34.3679C82.1042 34.201 81.4228 34.0434 80.5734 33.8949C79.4408 33.6723 78.5294 33.4496 77.8392 33.227C77.149 32.9859 76.5562 32.587 76.0607 32.0304C75.5829 31.4739 75.3439 30.7039 75.3439 29.7207C75.3439 28.4962 75.8306 27.4943 76.8039 26.7152C77.7773 25.936 79.1311 25.5464 80.8654 25.5464C81.7679 25.5464 82.6705 25.6763 83.573 25.936C84.4756 26.1772 85.2188 26.5019 85.8028 26.91L84.9799 28.4962C83.8296 27.6613 82.4581 27.244 80.8654 27.244C79.662 27.244 78.7506 27.4666 78.1312 27.9118C77.5295 28.3571 77.2287 28.9414 77.2287 29.665C77.2287 30.2215 77.3968 30.6668 77.733 31.0008C78.087 31.3347 78.5205 31.5851 79.0338 31.7521C79.547 31.9005 80.2548 32.0582 81.1574 32.2252C82.2723 32.4479 83.166 32.6705 83.8385 32.8931C84.511 33.1157 85.0861 33.496 85.5639 34.0341C86.0417 34.5721 86.2807 35.3142 86.2807 36.2603C86.2807 37.5404 85.7674 38.5608 84.741 39.3215C83.7323 40.0635 82.3254 40.4346 80.5203 40.4346Z" fill="#213E26"/>
<path opacity="0.8" d="M94.6493 25.5464C96.4721 25.5464 97.8701 26.0288 98.8435 26.9935C99.8168 27.9397 100.303 29.3496 100.303 31.2234V40.2954H98.4984V38.0135C98.0737 38.7741 97.4454 39.3678 96.6137 39.7945C95.7996 40.2212 94.8263 40.4346 93.6937 40.4346C92.1363 40.4346 90.8976 40.045 89.9773 39.2657C89.0571 38.4866 88.5969 37.4569 88.5969 36.1768C88.5969 34.9338 89.0217 33.932 89.8711 33.1713C90.7383 32.4107 92.1098 32.0304 93.9857 32.0304H98.4187V31.1399C98.4187 29.8784 98.0825 28.9229 97.41 28.2736C96.7375 27.6057 95.7554 27.2717 94.4635 27.2717C93.5786 27.2717 92.7292 27.4294 91.9151 27.7448C91.1011 28.0417 90.402 28.4591 89.818 28.9972L88.9686 27.5222C89.6765 26.8914 90.5259 26.4091 91.5169 26.0751C92.508 25.7227 93.5521 25.5464 94.6493 25.5464ZM93.9857 38.8762C95.0475 38.8762 95.9589 38.6257 96.7198 38.1248C97.4808 37.6053 98.0471 36.8632 98.4187 35.8985V33.5053H94.0388C91.6497 33.5053 90.4551 34.3772 90.4551 36.1212C90.4551 36.9746 90.7648 37.6517 91.3842 38.1526C92.0036 38.635 92.8708 38.8762 93.9857 38.8762Z" fill="#213E26"/>
<path opacity="0.8" d="M113.652 40.2955L119.226 25.9361C119.571 25.0456 119.81 24.2664 119.81 23.6264C119.81 22.2905 118.987 20.5652 116.784 20.5652C115.191 20.5652 113.837 21.5392 113.837 23.2924C113.837 24.7951 115.005 26.0196 116.492 26.0196C118.058 26.0196 118.775 24.8786 118.775 23.682C118.775 22.5689 118.191 21.9844 117.421 21.7062C117.262 21.6505 117.209 21.567 117.209 21.4279C117.209 21.2888 117.315 21.1774 117.448 21.1774C117.527 21.1774 117.633 21.2053 117.74 21.2331C118.509 21.4557 119.306 22.2905 119.306 23.6541C119.306 24.5447 118.775 25.7969 118.324 26.9101L115.085 35.0359H114.687L109.856 21.2609H112.006V20.8157H102.582V21.2609H104.122L110.148 38.2641C110.599 39.5442 111.263 40.2955 112.563 40.2955H113.652Z" fill="#213E26"/>
<path opacity="0.8" d="M128.799 39.9057C126.516 39.9057 125.985 37.8464 125.985 34.7574H127.737C130.817 34.7574 133.577 33.867 133.577 30.945C133.577 27.7726 130.551 26.7151 127.498 26.7151C123.278 26.7151 120.597 29.3031 120.597 33.6443C120.597 38.236 123.357 40.5736 128.003 40.5736C131.162 40.5736 133.126 38.7091 133.63 35.7314L133.153 35.6479L133.1 35.8984C132.622 38.3474 130.896 39.9057 128.799 39.9057ZM125.959 32.2529C125.959 27.9396 126.516 27.216 127.498 27.216C128.215 27.216 128.746 27.9673 128.746 30.9171C128.746 32.9486 128.295 34.2566 126.622 34.2566H125.959V32.2529Z" fill="#213E26"/>
<path opacity="0.8" d="M141.199 28.9692V26.7151C139.421 27.1047 137.722 27.2438 135.89 27.2438H134.298V27.6891H136.182V39.5996H134.536V40.0448H143.084V39.5996H141.093V34.0617C141.093 29.6649 142.128 27.216 144.358 27.216C145.34 27.216 145.924 27.7726 146.163 28.1064C146.27 28.2734 146.323 28.3848 146.323 28.5239C146.323 28.6909 146.216 28.7743 146.084 28.7743C145.898 28.7743 145.818 28.5517 145.659 28.3569C145.5 28.1622 145.102 27.8003 144.491 27.8003C143.456 27.8003 142.739 28.6631 142.739 29.7762C142.739 31.0285 143.668 31.8632 144.81 31.8632C146.243 31.8632 147.066 30.6945 147.066 29.3588C147.066 27.9117 145.924 26.7151 144.332 26.7151C142.898 26.7151 141.863 27.6891 141.332 28.9692H141.199Z" fill="#213E26"/>
<path opacity="0.8" d="M161.415 20.2868C159.637 20.6764 157.938 20.8155 156.106 20.8155H154.514V21.2608H156.398V28.691H156.266C155.655 27.383 154.567 26.7151 152.921 26.7151C149.098 26.7151 147.744 29.6371 147.744 33.6444C147.744 37.3733 149.258 40.5736 152.549 40.5736C154.407 40.5736 155.575 39.9335 156.266 38.1247H156.398V40.0449H163.061V39.5996H161.415V20.2868ZM156.504 33.6444C156.504 36.1767 155.867 39.3214 154.487 39.3214C153.292 39.3214 153.107 36.789 153.107 33.6444C153.107 29.6927 153.452 27.7448 154.487 27.7448C155.469 27.7448 156.504 29.4145 156.504 32.893V33.6444Z" fill="#213E26"/>
<path opacity="0.8" d="M172.169 39.9057C169.886 39.9057 169.355 37.8464 169.355 34.7574H171.107C174.186 34.7574 176.947 33.867 176.947 30.945C176.947 27.7726 173.921 26.7151 170.868 26.7151C166.647 26.7151 163.966 29.3031 163.966 33.6443C163.966 38.236 166.727 40.5736 171.372 40.5736C174.531 40.5736 176.496 38.7091 177 35.7314L176.522 35.6479L176.469 35.8984C175.991 38.3474 174.266 39.9057 172.169 39.9057ZM169.328 32.2529C169.328 27.9396 169.886 27.216 170.868 27.216C171.585 27.216 172.116 27.9673 172.116 30.9171C172.116 32.9486 171.664 34.2566 169.992 34.2566H169.328V32.2529Z" fill="#213E26"/>
</g>
</svg>
